<svg width="259" height="155" viewBox="0 0 259 155" fill="none" xmlns="http://www.w3.org/2000/svg">
<path d="M123.159 82.2609C122.206 82.2609 121.4 81.9448 120.74 81.3127C120.081 80.6807 119.745 79.8723 119.733 78.8877C119.733 77.8181 120.02 76.9186 120.594 76.1892C121.009 75.6423 121.534 75.1925 122.169 74.84C122.804 74.4875 123.501 74.2808 124.258 74.2201C124.282 74.2079 124.539 74.2018 125.027 74.2018H125.723C125.906 74.2626 125.998 74.3842 125.998 74.5665C125.998 74.8825 125.748 75.0406 125.247 75.0406H124.954H124.716C123.238 75.0406 122.273 75.697 121.821 77.0097L121.748 77.2285H124.991C125.149 77.3379 125.229 77.4534 125.229 77.575C125.229 77.7938 125.107 77.9579 124.862 78.0673H121.528V78.1037C121.406 78.4684 121.345 78.9181 121.345 79.453C121.345 80.2552 121.54 80.8083 121.931 81.1122C122.322 81.4161 122.756 81.5741 123.232 81.5862C123.562 81.5862 123.885 81.5255 124.203 81.4039C124.52 81.2824 124.777 81.1547 124.972 81.021C125.168 80.8873 125.271 80.8204 125.284 80.8204C125.369 80.8204 125.436 80.8812 125.485 81.0028C125.534 81.1243 125.558 81.2398 125.558 81.3492C125.558 81.3857 125.552 81.41 125.54 81.4221C125.503 81.4708 125.381 81.5559 125.174 81.6774C124.966 81.799 124.673 81.9266 124.294 82.0603C123.916 82.194 123.537 82.2609 123.159 82.2609Z" fill="black"/>
<path d="M126.71 81.0956C126.719 81.0698 126.727 81.0354 126.736 80.9924C126.744 80.9495 126.766 80.8549 126.801 80.7088C126.835 80.5627 126.878 80.4295 126.93 80.3092C126.982 80.1889 127.047 80.0471 127.124 79.8838C127.202 79.7205 127.288 79.5916 127.383 79.4971C127.478 79.4026 127.591 79.308 127.72 79.2135C127.85 79.119 127.992 79.0803 128.148 79.0975C128.398 79.0975 128.618 79.149 128.808 79.2522C128.998 79.3553 129.132 79.4498 129.21 79.5358C129.287 79.6217 129.335 79.7076 129.352 79.7936C129.369 79.8451 129.382 79.8709 129.391 79.8709C129.4 79.8709 129.434 79.8409 129.495 79.7807C129.909 79.3338 130.388 79.1104 130.932 79.1104H130.971C131.386 79.1104 131.696 79.2865 131.904 79.6389C131.973 79.8022 132.007 79.9612 132.007 80.1159C132.007 80.3737 131.951 80.5799 131.839 80.7346C131.727 80.8893 131.614 80.9881 131.502 81.0311C131.39 81.0741 131.282 81.0913 131.178 81.0827C131.006 81.0827 130.867 81.0354 130.764 80.9409C130.66 80.8463 130.608 80.7217 130.608 80.567C130.608 80.1545 130.85 79.8795 131.334 79.742C131.144 79.6303 130.988 79.5744 130.867 79.5744C130.384 79.5744 129.939 79.8924 129.533 80.5284C129.447 80.6659 129.382 80.8077 129.339 80.9538C129.296 81.0999 129.149 81.6713 128.899 82.6682C128.605 83.8714 128.437 84.5116 128.394 84.589C128.281 84.821 128.096 84.937 127.837 84.937C127.725 84.937 127.634 84.9112 127.565 84.8597C127.496 84.8081 127.448 84.7565 127.422 84.705C127.396 84.6534 127.388 84.6104 127.396 84.5761C127.396 84.4643 127.569 83.7253 127.914 82.3589C128.26 80.9924 128.433 80.2319 128.433 80.0772C128.433 79.742 128.32 79.5744 128.096 79.5744C127.914 79.5744 127.759 79.6948 127.63 79.9354C127.5 80.176 127.396 80.4381 127.319 80.7217C127.241 81.0053 127.193 81.16 127.176 81.1858C127.159 81.203 127.09 81.2116 126.969 81.2116H126.788C126.736 81.16 126.71 81.1213 126.71 81.0956Z" fill="black"/>
<path d="M134.258 85.9987C134.087 85.9987 133.941 85.95 133.819 85.8528C133.697 85.7555 133.629 85.6218 133.617 85.4517C133.617 85.3301 134.063 83.4946 134.954 79.9453C135.846 76.3959 136.316 74.5847 136.365 74.5118C136.524 74.1715 136.805 74.0013 137.208 74.0013C137.354 74.0134 137.476 74.056 137.574 74.1289C137.672 74.2018 137.733 74.2748 137.757 74.3477C137.782 74.4206 137.794 74.4814 137.794 74.53C137.794 74.6759 137.605 75.4903 137.226 76.9733C136.847 78.4562 136.646 79.2889 136.622 79.4712C136.597 79.6049 136.585 79.8176 136.585 80.1094V80.2552C136.585 81.1426 136.994 81.5862 137.812 81.5862C137.922 81.5862 138.032 81.5802 138.142 81.568C138.252 81.5559 138.356 81.5316 138.453 81.4951C138.551 81.4586 138.643 81.4161 138.728 81.3675C138.814 81.3188 138.893 81.2763 138.966 81.2398C139.04 81.2034 139.113 81.1426 139.186 81.0575C139.26 80.9724 139.327 80.9116 139.388 80.8752C139.449 80.8387 139.51 80.7658 139.571 80.6564C139.632 80.547 139.681 80.4801 139.717 80.4558C139.754 80.4315 139.809 80.3586 139.882 80.237L140.011 80.0547L140.67 77.4473C141.11 75.7213 141.354 74.8035 141.403 74.6941C141.562 74.3659 141.824 74.2018 142.191 74.2018C142.349 74.2018 142.478 74.2444 142.575 74.3295C142.673 74.4146 142.74 74.4875 142.777 74.5483C142.813 74.6091 142.826 74.6698 142.813 74.7306L141.421 80.5287C141.409 80.5895 141.403 80.6868 141.403 80.8205C141.403 81.1243 141.446 81.3249 141.531 81.4222C141.617 81.5194 141.745 81.5741 141.916 81.5862C142.026 81.5741 142.148 81.5194 142.282 81.4222C142.539 81.179 142.789 80.5956 143.033 79.6718C143.107 79.4287 143.168 79.301 143.216 79.2889C143.241 79.2767 143.302 79.2706 143.4 79.2706H143.473C143.705 79.2706 143.821 79.3253 143.821 79.4347C143.821 79.5077 143.79 79.6718 143.729 79.927C143.668 80.1823 143.546 80.5105 143.363 80.9116C143.18 81.3128 142.984 81.6166 142.777 81.8233C142.618 81.9813 142.423 82.1089 142.191 82.2062C142.093 82.2305 141.946 82.2426 141.751 82.2426C141.494 82.2426 141.262 82.2062 141.055 82.1332C140.847 82.0603 140.682 81.9691 140.56 81.8597C140.438 81.7503 140.334 81.6409 140.249 81.5316C140.163 81.4222 140.108 81.331 140.084 81.2581C140.059 81.1851 140.047 81.1426 140.047 81.1304L139.937 81.2398C139.864 81.3128 139.754 81.4039 139.608 81.5133C139.461 81.6227 139.302 81.7321 139.131 81.8415C138.96 81.9509 138.74 82.0482 138.472 82.1332C138.203 82.2183 137.947 82.2609 137.702 82.2609C137.128 82.2609 136.56 82.1211 135.999 81.8415L135.559 83.6101C135.303 84.6069 135.15 85.1842 135.101 85.3423C135.052 85.5003 134.979 85.634 134.881 85.7434C134.686 85.9136 134.478 85.9987 134.258 85.9987Z" fill="black"/>
<path d="M144.514 81.0956C144.523 81.0698 144.531 81.0354 144.54 80.9924C144.549 80.9495 144.57 80.8549 144.605 80.7088C144.639 80.5627 144.683 80.4295 144.734 80.3092C144.786 80.1889 144.851 80.0471 144.929 79.8838C145.006 79.7205 145.093 79.5916 145.188 79.4971C145.283 79.4026 145.395 79.308 145.524 79.2135C145.654 79.119 145.796 79.0803 145.952 79.0975C146.202 79.0975 146.422 79.149 146.612 79.2522C146.802 79.3553 146.936 79.4498 147.014 79.5358C147.092 79.6217 147.139 79.7076 147.156 79.7936C147.174 79.8451 147.187 79.8709 147.195 79.8709C147.204 79.8709 147.238 79.8409 147.299 79.7807C147.713 79.3338 148.192 79.1104 148.736 79.1104H148.775C149.19 79.1104 149.501 79.2865 149.708 79.6389C149.777 79.8022 149.811 79.9612 149.811 80.1159C149.811 80.3737 149.755 80.5799 149.643 80.7346C149.531 80.8893 149.419 80.9881 149.306 81.0311C149.194 81.0741 149.086 81.0913 148.982 81.0827C148.81 81.0827 148.672 81.0354 148.568 80.9409C148.464 80.8463 148.413 80.7217 148.413 80.567C148.413 80.1545 148.654 79.8795 149.138 79.742C148.948 79.6303 148.793 79.5744 148.672 79.5744C148.188 79.5744 147.743 79.8924 147.338 80.5284C147.251 80.6659 147.187 80.8077 147.143 80.9538C147.1 81.0999 146.953 81.6713 146.703 82.6682C146.409 83.8714 146.241 84.5116 146.198 84.589C146.086 84.821 145.9 84.937 145.641 84.937C145.529 84.937 145.438 84.9112 145.369 84.8597C145.3 84.8081 145.252 84.7565 145.227 84.705C145.201 84.6534 145.192 84.6104 145.201 84.5761C145.201 84.4643 145.373 83.7253 145.719 82.3589C146.064 80.9924 146.237 80.2319 146.237 80.0772C146.237 79.742 146.124 79.5744 145.9 79.5744C145.719 79.5744 145.563 79.6948 145.434 79.9354C145.304 80.176 145.201 80.4381 145.123 80.7217C145.045 81.0053 144.998 81.16 144.98 81.1858C144.963 81.203 144.894 81.2116 144.773 81.2116H144.592C144.54 81.16 144.514 81.1213 144.514 81.0956Z" fill="black"/>
<circle cx="33" cy="80" r="31" stroke="black" stroke-width="2"/>
<circle cx="227" cy="80" r="31" stroke="black" stroke-width="2"/>
<path d="M33 20L43 25.7735L43 14.2265L33 20ZM227 20L217 14.2265L217 25.7735L227 20ZM42 21L218 21L218 19L42 19L42 21Z" fill="black"/>
<path d="M33 10V30M226 10V30" stroke="black" stroke-width="2"/>
<path d="M125.742 10.7031C125.742 9.40625 126.049 8.36458 126.664 7.57812C127.279 6.78646 128.083 6.39062 129.078 6.39062C130.068 6.39062 130.852 6.72917 131.43 7.40625V3H132.875V15H131.547L131.477 14.0938C130.898 14.8021 130.094 15.1562 129.062 15.1562C128.083 15.1562 127.284 14.7552 126.664 13.9531C126.049 13.151 125.742 12.1042 125.742 10.8125V10.7031ZM127.188 10.8672C127.188 11.8255 127.385 12.5755 127.781 13.1172C128.177 13.6589 128.724 13.9297 129.422 13.9297C130.339 13.9297 131.008 13.5182 131.43 12.6953V8.8125C130.997 8.01562 130.333 7.61719 129.438 7.61719C128.729 7.61719 128.177 7.89062 127.781 8.4375C127.385 8.98438 127.188 9.79427 127.188 10.8672Z" fill="black"/>
<path d="M1 143L11.089 148.617L10.9086 137.071L1 143ZM65 142L54.911 136.383L55.0914 147.929L65 142ZM10.0145 143.859L56.0167 143.14L55.9855 141.141L9.98328 141.86L10.0145 143.859Z" fill="black"/>
<line x1="1" y1="131" x2="0.999999" y2="155" stroke="black" stroke-width="2"/>
<line x1="64" y1="131" x2="64" y2="155" stroke="black" stroke-width="2"/>
<path d="M32.3984 136H24.9453V134.961L28.8828 130.586C29.4661 129.924 29.8672 129.388 30.0859 128.977C30.3099 128.56 30.4219 128.13 30.4219 127.688C30.4219 127.094 30.2422 126.607 29.8828 126.227C29.5234 125.846 29.0443 125.656 28.4453 125.656C27.7266 125.656 27.1667 125.862 26.7656 126.273C26.3698 126.68 26.1719 127.247 26.1719 127.977H24.7266C24.7266 126.93 25.0625 126.083 25.7344 125.438C26.4115 124.792 27.3151 124.469 28.4453 124.469C29.5026 124.469 30.3385 124.747 30.9531 125.305C31.5677 125.857 31.875 126.594 31.875 127.516C31.875 128.635 31.1615 129.969 29.7344 131.516L26.6875 134.82H32.3984V136ZM39.2969 136C39.2135 135.833 39.1458 135.536 39.0938 135.109C38.4219 135.807 37.6198 136.156 36.6875 136.156C35.8542 136.156 35.1693 135.922 34.6328 135.453C34.1016 134.979 33.8359 134.38 33.8359 133.656C33.8359 132.776 34.1693 132.094 34.8359 131.609C35.5078 131.12 36.4505 130.875 37.6641 130.875H39.0703V130.211C39.0703 129.706 38.9193 129.305 38.6172 129.008C38.3151 128.706 37.8698 128.555 37.2812 128.555C36.7656 128.555 36.3333 128.685 35.9844 128.945C35.6354 129.206 35.4609 129.521 35.4609 129.891H34.0078C34.0078 129.469 34.1562 129.062 34.4531 128.672C34.7552 128.276 35.1615 127.964 35.6719 127.734C36.1875 127.505 36.7526 127.391 37.3672 127.391C38.3411 127.391 39.1042 127.635 39.6562 128.125C40.2083 128.609 40.4948 129.279 40.5156 130.133V134.023C40.5156 134.799 40.6146 135.417 40.8125 135.875V136H39.2969ZM36.8984 134.898C37.3516 134.898 37.7812 134.781 38.1875 134.547C38.5938 134.312 38.888 134.008 39.0703 133.633V131.898H37.9375C36.1667 131.898 35.2812 132.417 35.2812 133.453C35.2812 133.906 35.4323 134.26 35.7344 134.516C36.0365 134.771 36.4245 134.898 36.8984 134.898Z" fill="black"/>
</svg>
