<svg width="300" height="300" viewBox="0 0 300 300" fill="none" xmlns="http://www.w3.org/2000/svg">
<circle cx="150" cy="150" r="149" stroke="black" stroke-width="2"/>
<circle cx="150" cy="150" r="46" stroke="black" stroke-width="2"/>
<path d="M195 149L185 143.227L185 154.774L195 149ZM151 150L186 150L186 148L151 148L151 150Z" fill="black"/>
<path d="M152 2.00001L146.226 12L157.773 12L152 2.00001ZM153 150L153 11L151 11L151 150L153 150Z" fill="black"/>
<path d="M140.159 263.261C139.206 263.261 138.4 262.945 137.74 262.313C137.081 261.681 136.745 260.872 136.733 259.888C136.733 258.818 137.02 257.919 137.594 257.189C138.009 256.642 138.534 256.193 139.169 255.84C139.804 255.487 140.501 255.281 141.258 255.22C141.282 255.208 141.539 255.202 142.027 255.202H142.723C142.906 255.263 142.998 255.384 142.998 255.566C142.998 255.883 142.748 256.041 142.247 256.041H141.954H141.716C140.238 256.041 139.273 256.697 138.821 258.01L138.748 258.229H141.991C142.149 258.338 142.229 258.453 142.229 258.575C142.229 258.794 142.107 258.958 141.862 259.067H138.528V259.104C138.406 259.468 138.345 259.918 138.345 260.453C138.345 261.255 138.54 261.808 138.931 262.112C139.322 262.416 139.756 262.574 140.232 262.586C140.562 262.586 140.885 262.525 141.203 262.404C141.52 262.282 141.777 262.155 141.972 262.021C142.168 261.887 142.271 261.82 142.284 261.82C142.369 261.82 142.436 261.881 142.485 262.003C142.534 262.124 142.558 262.24 142.558 262.349C142.558 262.386 142.552 262.41 142.54 262.422C142.503 262.471 142.381 262.556 142.174 262.677C141.966 262.799 141.673 262.927 141.294 263.06C140.916 263.194 140.537 263.261 140.159 263.261Z" fill="black"/>
<path d="M143.71 262.096C143.719 262.07 143.727 262.035 143.736 261.992C143.744 261.949 143.766 261.855 143.801 261.709C143.835 261.563 143.878 261.43 143.93 261.309C143.982 261.189 144.047 261.047 144.124 260.884C144.202 260.721 144.288 260.592 144.383 260.497C144.478 260.403 144.591 260.308 144.72 260.213C144.85 260.119 144.992 260.08 145.148 260.097C145.398 260.097 145.618 260.149 145.808 260.252C145.998 260.355 146.132 260.45 146.21 260.536C146.287 260.622 146.335 260.708 146.352 260.794C146.369 260.845 146.382 260.871 146.391 260.871C146.4 260.871 146.434 260.841 146.495 260.781C146.909 260.334 147.388 260.11 147.932 260.11H147.971C148.386 260.11 148.696 260.287 148.904 260.639C148.973 260.802 149.007 260.961 149.007 261.116C149.007 261.374 148.951 261.58 148.839 261.735C148.727 261.889 148.614 261.988 148.502 262.031C148.39 262.074 148.282 262.091 148.178 262.083C148.006 262.083 147.867 262.035 147.764 261.941C147.66 261.846 147.608 261.722 147.608 261.567C147.608 261.155 147.85 260.88 148.334 260.742C148.144 260.63 147.988 260.574 147.867 260.574C147.384 260.574 146.939 260.892 146.533 261.528C146.447 261.666 146.382 261.808 146.339 261.954C146.296 262.1 146.149 262.671 145.899 263.668C145.605 264.871 145.437 265.512 145.394 265.589C145.281 265.821 145.096 265.937 144.837 265.937C144.725 265.937 144.634 265.911 144.565 265.86C144.496 265.808 144.448 265.757 144.422 265.705C144.396 265.653 144.388 265.61 144.396 265.576C144.396 265.464 144.569 264.725 144.914 263.359C145.26 261.992 145.433 261.232 145.433 261.077C145.433 260.742 145.32 260.574 145.096 260.574C144.914 260.574 144.759 260.695 144.63 260.935C144.5 261.176 144.396 261.438 144.319 261.722C144.241 262.005 144.193 262.16 144.176 262.186C144.159 262.203 144.09 262.212 143.969 262.212H143.788C143.736 262.16 143.71 262.121 143.71 262.096Z" fill="black"/>
<path d="M151.258 266.999C151.087 266.999 150.941 266.95 150.819 266.853C150.697 266.756 150.629 266.622 150.617 266.452C150.617 266.33 151.063 264.495 151.954 260.945C152.846 257.396 153.316 255.585 153.365 255.512C153.524 255.171 153.805 255.001 154.208 255.001C154.354 255.013 154.476 255.056 154.574 255.129C154.672 255.202 154.733 255.275 154.757 255.348C154.782 255.421 154.794 255.481 154.794 255.53C154.794 255.676 154.605 256.49 154.226 257.973C153.847 259.456 153.646 260.289 153.622 260.471C153.597 260.605 153.585 260.818 153.585 261.109V261.255C153.585 262.143 153.994 262.586 154.812 262.586C154.922 262.586 155.032 262.58 155.142 262.568C155.252 262.556 155.356 262.532 155.453 262.495C155.551 262.459 155.643 262.416 155.728 262.367C155.814 262.319 155.893 262.276 155.966 262.24C156.04 262.203 156.113 262.143 156.186 262.057C156.26 261.972 156.327 261.912 156.388 261.875C156.449 261.839 156.51 261.766 156.571 261.656C156.632 261.547 156.681 261.48 156.717 261.456C156.754 261.431 156.809 261.359 156.882 261.237L157.011 261.055L157.67 258.447C158.11 256.721 158.354 255.804 158.403 255.694C158.562 255.366 158.824 255.202 159.191 255.202C159.349 255.202 159.478 255.244 159.575 255.329C159.673 255.415 159.74 255.487 159.777 255.548C159.813 255.609 159.826 255.67 159.813 255.731L158.421 261.529C158.409 261.59 158.403 261.687 158.403 261.82C158.403 262.124 158.446 262.325 158.531 262.422C158.617 262.519 158.745 262.574 158.916 262.586C159.026 262.574 159.148 262.519 159.282 262.422C159.539 262.179 159.789 261.596 160.033 260.672C160.107 260.429 160.168 260.301 160.216 260.289C160.241 260.277 160.302 260.271 160.4 260.271H160.473C160.705 260.271 160.821 260.325 160.821 260.435C160.821 260.508 160.79 260.672 160.729 260.927C160.668 261.182 160.546 261.51 160.363 261.912C160.18 262.313 159.984 262.617 159.777 262.823C159.618 262.981 159.423 263.109 159.191 263.206C159.093 263.23 158.946 263.243 158.751 263.243C158.494 263.243 158.262 263.206 158.055 263.133C157.847 263.06 157.682 262.969 157.56 262.86C157.438 262.75 157.334 262.641 157.249 262.532C157.163 262.422 157.108 262.331 157.084 262.258C157.059 262.185 157.047 262.143 157.047 262.13L156.937 262.24C156.864 262.313 156.754 262.404 156.608 262.513C156.461 262.623 156.302 262.732 156.131 262.842C155.96 262.951 155.74 263.048 155.472 263.133C155.203 263.218 154.947 263.261 154.702 263.261C154.128 263.261 153.56 263.121 152.999 262.842L152.559 264.61C152.303 265.607 152.15 266.184 152.101 266.342C152.052 266.5 151.979 266.634 151.881 266.743C151.686 266.914 151.478 266.999 151.258 266.999Z" fill="black"/>
<path d="M161.514 262.096C161.523 262.07 161.531 262.035 161.54 261.992C161.549 261.949 161.57 261.855 161.605 261.709C161.639 261.563 161.683 261.43 161.734 261.309C161.786 261.189 161.851 261.047 161.929 260.884C162.006 260.721 162.093 260.592 162.188 260.497C162.283 260.403 162.395 260.308 162.524 260.213C162.654 260.119 162.796 260.08 162.952 260.097C163.202 260.097 163.422 260.149 163.612 260.252C163.802 260.355 163.936 260.45 164.014 260.536C164.092 260.622 164.139 260.708 164.156 260.794C164.174 260.845 164.187 260.871 164.195 260.871C164.204 260.871 164.238 260.841 164.299 260.781C164.713 260.334 165.192 260.11 165.736 260.11H165.775C166.19 260.11 166.501 260.287 166.708 260.639C166.777 260.802 166.811 260.961 166.811 261.116C166.811 261.374 166.755 261.58 166.643 261.735C166.531 261.889 166.419 261.988 166.306 262.031C166.194 262.074 166.086 262.091 165.982 262.083C165.81 262.083 165.672 262.035 165.568 261.941C165.464 261.846 165.413 261.722 165.413 261.567C165.413 261.155 165.654 260.88 166.138 260.742C165.948 260.63 165.793 260.574 165.672 260.574C165.188 260.574 164.743 260.892 164.338 261.528C164.251 261.666 164.187 261.808 164.143 261.954C164.1 262.1 163.953 262.671 163.703 263.668C163.409 264.871 163.241 265.512 163.198 265.589C163.086 265.821 162.9 265.937 162.641 265.937C162.529 265.937 162.438 265.911 162.369 265.86C162.3 265.808 162.252 265.757 162.227 265.705C162.201 265.653 162.192 265.61 162.201 265.576C162.201 265.464 162.373 264.725 162.719 263.359C163.064 261.992 163.237 261.232 163.237 261.077C163.237 260.742 163.124 260.574 162.9 260.574C162.719 260.574 162.563 260.695 162.434 260.935C162.304 261.176 162.201 261.438 162.123 261.722C162.045 262.005 161.998 262.16 161.98 262.186C161.963 262.203 161.894 262.212 161.773 262.212H161.592C161.54 262.16 161.514 262.121 161.514 262.096Z" fill="black"/>
<path d="M163.359 65.2969C164.484 65.2969 165.357 65.6823 165.977 66.4531C166.602 67.2188 166.914 68.3047 166.914 69.7109C166.914 71.1172 166.599 72.2109 165.969 72.9922C165.344 73.7682 164.474 74.1562 163.359 74.1562C162.802 74.1562 162.292 74.0547 161.828 73.8516C161.37 73.6432 160.984 73.3255 160.672 72.8984H160.578L160.305 74H159.375V61.8438H160.672V64.7969C160.672 65.4583 160.651 66.0521 160.609 66.5781H160.672C161.276 65.724 162.172 65.2969 163.359 65.2969ZM163.172 66.3828C162.286 66.3828 161.648 66.638 161.258 67.1484C160.867 67.6536 160.672 68.5078 160.672 69.7109C160.672 70.9141 160.872 71.776 161.273 72.2969C161.674 72.8125 162.318 73.0703 163.203 73.0703C164 73.0703 164.594 72.7812 164.984 72.2031C165.375 71.6198 165.57 70.7839 165.57 69.6953C165.57 68.5807 165.375 67.75 164.984 67.2031C164.594 66.6562 163.99 66.3828 163.172 66.3828Z" fill="black"/>
<path d="M165.641 141L165.383 139.781H165.32C164.893 140.318 164.466 140.682 164.039 140.875C163.617 141.062 163.089 141.156 162.453 141.156C161.604 141.156 160.938 140.938 160.453 140.5C159.974 140.062 159.734 139.44 159.734 138.633C159.734 136.904 161.117 135.997 163.883 135.914L165.336 135.867V135.336C165.336 134.664 165.19 134.169 164.898 133.852C164.612 133.529 164.151 133.367 163.516 133.367C162.802 133.367 161.995 133.586 161.094 134.023L160.695 133.031C161.117 132.802 161.578 132.622 162.078 132.492C162.583 132.362 163.089 132.297 163.594 132.297C164.615 132.297 165.37 132.523 165.859 132.977C166.354 133.43 166.602 134.156 166.602 135.156V141H165.641ZM162.711 140.086C163.518 140.086 164.151 139.865 164.609 139.422C165.073 138.979 165.305 138.359 165.305 137.562V136.789L164.008 136.844C162.977 136.88 162.232 137.042 161.773 137.328C161.32 137.609 161.094 138.049 161.094 138.648C161.094 139.117 161.234 139.474 161.516 139.719C161.802 139.964 162.201 140.086 162.711 140.086Z" fill="black"/>
</svg>
